<?xml version="1.0" standalone="no"?><!DOCTYPE svg PUBLIC "-//W3C//DTD SVG 1.1//EN" "http://www.w3.org/Graphics/SVG/1.1/DTD/svg11.dtd"><svg t="1530264789478" class="icon" style="" viewBox="0 0 1024 1024" version="1.1" xmlns="http://www.w3.org/2000/svg" p-id="3294" xmlns:xlink="http://www.w3.org/1999/xlink" width="16" height="16"><defs><style type="text/css"></style></defs><path d="M857.805864 729.340003c-37.021172-86.764086-105.755626-155.599847-193.168488-193.163371-18.34788-7.887644-36.710087-13.985526-55.066153-18.358113 21.852704-9.612938 41.512463-24.026206 58.56279-41.079604C707.906855 436.96505 728.444611 389.331169 728.444611 332.514139c0-56.80782-20.538779-105.317651-60.310597-145.091516-39.771819-39.773865-87.406722-60.313667-144.219659-60.313667-56.81396 0-104.668875 20.324908-145.094586 60.313667-39.989783 39.559994-60.310597 88.283696-60.310597 145.091516 0 56.81703 20.23588 104.758925 60.310597 144.224776 17.61417 17.35118 37.585013 31.466666 59.436694 41.079604-19.22997 4.372587-37.615713 10.414187-55.940057 18.358113-86.562495 37.508265-156.026566 106.809631-192.294584 193.163371-18.799158 44.76146-28.843932 91.780333-28.843932 140.728138l0 31.466666 724.600049 0 0-31.466666C885.775892 821.120336 876.723725 773.681908 857.805864 729.340003zM422.521083 433.906387c-28.189016-28.632107-41.954531-62.057381-41.954531-101.392248 0-39.326681 14.201443-73.198116 41.954531-101.383038 28.189016-28.632107 62.059428-42.832528 101.392248-42.832528 39.33282 0 73.201186 14.199397 101.391225 42.832528 27.753087 28.184923 41.955554 62.057381 41.955554 101.383038 0 39.33589-13.766538 72.760141-41.955554 101.392248-27.752064 28.184923-62.058404 41.955554-101.391225 41.955554C484.58051 475.861942 450.27417 462.09131 422.521083 433.906387zM224.108151 839.477426c6.992251-70.802556 35.836183-131.116223 86.532819-181.807742 58.561767-58.560744 129.361253-88.283696 212.397435-88.283696 83.037205 0 154.708548 29.722952 213.271338 88.283696 50.695612 50.691519 79.540567 111.005186 87.406722 181.807742L224.108151 839.477426z" p-id="3295" fill="#d81e06"></path></svg>