<?xml version="1.0" standalone="no"?><!DOCTYPE svg PUBLIC "-//W3C//DTD SVG 1.1//EN" "http://www.w3.org/Graphics/SVG/1.1/DTD/svg11.dtd"><svg t="1530264820210" class="icon" style="" viewBox="0 0 1024 1024" version="1.1" xmlns="http://www.w3.org/2000/svg" p-id="4022" xmlns:xlink="http://www.w3.org/1999/xlink" width="16" height="16"><defs><style type="text/css"></style></defs><path d="M1001.6 763.84l-145.024-145.088c-25.856-25.792-70.976-25.792-97.024 0l-64.384 64.384c-25.664 25.856-70.976 25.6-96.768 0L340.48 425.216c-26.624-26.624-26.624-70.144 0-96.768l64.576-64.448c12.8-12.928 19.84-29.952 19.84-48.384s-7.04-35.456-19.84-48.384L259.904 22.08c-25.728-25.856-71.04-25.856-96.768 0L98.688 86.528C98.112 87.04 97.6 87.424 95.744 88.32 91.648 90.368 82.048 95.36 77.76 107.52c-83.072 86.464-97.664 194.176-43.072 320 40.384 93.568 119.232 198.208 241.28 320 186.688 187.008 332.992 273.728 460.736 273.728 67.072 0 127.552-25.344 179.648-75.392 12.032-4.032 17.024-13.76 19.008-17.92 1.024-1.664 1.344-2.304 1.728-2.944l64.576-64.448C1028.352 833.792 1028.352 790.592 1001.6 763.84L1001.6 763.84zM195.328 54.336c8.512-8.576 23.68-8.576 32.384 0l145.088 145.216c4.224 4.096 6.592 9.856 6.592 16.064 0 6.016-2.368 11.904-6.592 16.064L324.352 280.128l-177.28-177.472L195.328 54.336 195.328 54.336zM736.704 975.616c-113.216 0-253.376-85.056-428.416-260.224C190.464 597.568 114.56 497.536 76.48 409.344 28.544 298.432 41.024 208.64 114.688 134.848l179.008 179.136C264.448 358.144 269.312 418.432 308.224 457.408l258.048 257.984C587.84 737.088 616.32 748.8 646.976 748.8c22.592 0 44.352-6.848 62.656-18.752l179.136 178.944C843.968 953.856 793.92 975.616 736.704 975.616L736.704 975.616zM969.28 828.352 921.152 876.8l-177.408-177.344 48.32-48.512c8.64-8.64 23.808-8.64 32.256 0l145.024 145.28C978.304 805.12 978.304 819.456 969.28 828.352L969.28 828.352z" p-id="4023" fill="#d81e06"></path></svg>