<?xml version="1.0" standalone="no"?><!DOCTYPE svg PUBLIC "-//W3C//DTD SVG 1.1//EN" "http://www.w3.org/Graphics/SVG/1.1/DTD/svg11.dtd"><svg t="1530187447883" class="icon" style="" viewBox="0 0 1117 1024" version="1.1" xmlns="http://www.w3.org/2000/svg" p-id="2204" xmlns:xlink="http://www.w3.org/1999/xlink" width="34.90625" height="32"><defs><style type="text/css"></style></defs><path d="M961.284101 126.037376c0-37.909206-33.648137-71.568353-95.064794-94.525279-53.951528-20.292381-125.519881-31.512097-200.798778-31.512097S518.562267 11.219716 464.62175 31.523107c-61.945162 22.956926-95.593299 56.605062-95.593299 94.525279v181.034903c-23.496441-2.13604-48.071912-3.743575-73.164878-3.743576-75.267887 0-146.83624 11.219716-200.787768 31.512097C33.659147 358.348251 0.011011 391.996387 0.011011 429.905593v389.331843c0 37.909206 33.648137 71.568353 95.064794 94.525279 53.951528 20.292381 125.519881 31.512097 200.798778 31.512096s146.858261-11.208705 200.798779-31.512096c53.401002-20.292381 85.981119-48.060902 93.457259-80.101503a694.25707 694.25707 0 0 0 74.761403 3.732564c75.300918 0 146.858261-11.219716 200.798778-31.512096 61.416658-22.967936 95.064794-56.605062 95.064795-94.525279v-3.20406z m-47.532397 440.596804c0 32.580117-97.200834 79.033483-248.837659 79.033483a651.58031 651.58031 0 0 1-73.164878-3.732565v-97.200834a658.208641 658.208641 0 0 0 73.164878 3.743575c75.300918 0 146.858261-11.208705 200.798778-31.512096a251.777467 251.777467 0 0 0 48.060902-23.496441z m-369.01744-1.101052c0 32.580117-97.200834 79.033483-248.83766 79.033483s-248.837659-46.992882-248.837659-79.033483v-64.598696a251.986667 251.986667 0 0 0 48.01686 23.507451c53.951528 20.292381 125.519881 31.512097 200.798778 31.512096s146.858261-11.219716 200.798779-31.512096a251.931614 251.931614 0 0 0 48.060902-23.496441zM46.992882 636.583987a251.986667 251.986667 0 0 0 48.082923 23.507452c53.951528 20.292381 125.519881 31.512097 200.798778 31.512096s146.858261-11.219716 200.798779-31.512096a251.931614 251.931614 0 0 0 48.060902-23.496441v56.076557c0 32.580117-97.200834 79.033483-248.83766 79.033484s-248.837659-46.992882-248.837659-79.033484z m866.758822-214.187565c0 32.580117-97.200834 79.033483-248.837659 79.033483a650.347132 650.347132 0 0 1-73.164878-3.743576v-67.824778a66.976968 66.976968 0 0 0-7.476141-29.904561 789.332875 789.332875 0 0 0 80.641019 4.27208c75.300918 0 146.858261-11.208705 200.798778-31.501086a252.008688 252.008688 0 0 0 48.060902-23.496441z m0-144.722221c0 32.580117-97.200834 79.033483-248.837659 79.033483s-248.837659-47.003892-248.83766-79.033483v-80.607987a251.920604 251.920604 0 0 0 48.060902 23.496441c53.951528 20.292381 125.519881 31.512097 200.798779 31.512096s146.858261-11.219716 200.798778-31.512096a251.766457 251.766457 0 0 0 48.060902-23.496441z m-248.837659-231.220834c151.669857 0 248.837659 46.992882 248.837659 79.033483s-96.661319 79.572998-248.837659 79.572998c-151.669857 0-248.837659-46.992882-248.83766-79.033483s97.200834-79.572998 248.83766-79.572998z m-369.028451 303.890239c33.648137 0 64.081203 2.13604 91.860734 6.40812 1.101052 0 1.596525 0.539515 2.664545 0.539515 96.121804 13.884261 154.334401 47.532397 154.334401 72.669405 0 32.580117-97.200834 79.033483-248.837659 79.033483s-248.837659-46.992882-248.83766-79.033483 96.661319-79.572998 248.83766-79.572998z m0 548.455818c-151.669857 0-248.837659-46.992882-248.83766-79.033483v-56.043526a251.986667 251.986667 0 0 0 48.027871 23.463409c53.951528 20.292381 125.519881 31.512097 200.798778 31.512096s146.858261-11.219716 200.798779-31.512096a251.931614 251.931614 0 0 0 48.060902-23.463409v56.043526c0 32.040601-97.200834 79.033483-248.83766 79.033483z m369.028451-108.40954a650.347132 650.347132 0 0 1-73.164878-3.732565v-97.200834a658.208641 658.208641 0 0 0 73.164878 3.732565c75.300918 0 146.858261-11.208705 200.798778-31.501086a252.140814 252.140814 0 0 0 48.038881-23.485431v73.693383c0 31.512097-96.661319 78.504978-248.837659 78.504979z m0 0" p-id="2205" fill="#d81e06"></path></svg>