<?xml version="1.0" standalone="no"?><!DOCTYPE svg PUBLIC "-//W3C//DTD SVG 1.1//EN" "http://www.w3.org/Graphics/SVG/1.1/DTD/svg11.dtd"><svg t="1530187553585" class="icon" style="" viewBox="0 0 1024 1024" version="1.1" xmlns="http://www.w3.org/2000/svg" p-id="2971" xmlns:xlink="http://www.w3.org/1999/xlink" width="32" height="32"><defs><style type="text/css"></style></defs><path d="M540.829 140.947c15.637 0 28.523 12.892 28.523 28.563v34.259c0 15.712 12.312 32.381 27.258 37.014l47.718 19.658c5.136 2.754 11.178 4.07 17.313 4.07 10.407 0 21.075-3.787 28.025-10.769l24.296-24.28c5.568-5.548 12.886-8.323 20.202-8.323s14.628 2.775 20.183 8.322l40.382 40.355c11.136 11.102 11.136 29.276 0 40.415l-24.297 24.262c-11.046 11.113-14.094 31.508-6.671 45.34l19.648 47.8c4.68 14.993 21.31 27.263 37.005 27.263h34.257c15.667 0 28.494 12.83 28.494 28.554v57.127c0 15.714-12.828 28.551-28.494 28.551h-34.257c-15.632 0-32.325 12.269-37.005 27.233l-19.648 47.801c-7.423 13.857-4.375 34.315 6.67 45.37l24.298 24.26c11.136 11.125 11.136 29.286 0 40.417l-40.382 40.385c-5.555 5.548-12.868 8.32-20.183 8.32s-14.634-2.771-20.202-8.32l-24.18-24.308c-6.973-6.948-17.614-10.727-27.996-10.727-6.156 0-12.22 1.33-17.37 4.118l-47.805 19.654c-14.946 4.666-27.258 21.304-27.258 37.023v34.16c0 15.67-12.886 28.535-28.523 28.535h-57.046c-15.752 0-28.585-12.864-28.585-28.535v-34.157c0-15.718-12.225-32.357-27.22-37.023l-47.872-19.654c-5.137-2.788-11.184-4.118-17.322-4.118-10.35 0-20.959 3.781-27.895 10.727l-24.326 24.308c-5.552 5.548-12.863 8.32-20.17 8.32-7.308 0-14.613-2.771-20.153-8.32l-40.415-40.385c-11.047-11.131-11.047-29.292 0-40.416l24.298-24.26c11.106-11.057 14.094-31.514 6.702-45.37l-19.71-47.802c-4.623-14.963-21.22-27.233-36.94-27.26h-34.228c-15.699 0-28.556-12.866-28.556-28.587v-57.063c0-15.723 12.858-28.553 28.556-28.553l34.227 0.031c15.721 0 32.355-12.277 36.999-27.267l19.653-47.828c7.453-13.834 4.433-34.228-6.702-45.34l-24.234-24.29c-11.111-11.112-11.111-29.286 0-40.388l40.35-40.355c5.541-5.547 12.845-8.322 20.154-8.322 7.307 0 14.619 2.775 20.17 8.322l24.358 24.281c6.967 6.993 17.593 10.776 27.969 10.776 6.126 0 12.164-1.318 17.31-4.078l47.777-19.658c14.996-4.633 27.221-21.302 27.221-37.014v-34.26c0-15.67 12.862-28.562 28.585-28.562h57.044m-28.465 513.695c78.784 0 142.65-63.848 142.65-142.692 0-78.806-63.867-142.7-142.65-142.7-78.806 0-142.67 63.894-142.67 142.7 0 78.844 63.864 142.692 142.67 142.692M540.83 66.72h-57.046c-56.69 0-102.812 46.11-102.812 102.79v10.35l-10.638 4.376-7.367-7.344c-19.32-19.309-45.117-29.981-72.574-29.981-27.487 0-53.3 10.691-72.682 30.105l-40.312 40.317c-19.382 19.365-30.07 45.185-30.07 72.673 0 27.478 10.68 53.292 30.075 72.685l7.237 7.254-4.411 10.734-10.214-0.01c-56.743 0-102.851 46.108-102.851 102.782v57.063c0 56.693 46.108 102.815 102.783 102.815h10.245l4.42 10.717-7.233 7.222c-39.917 40.194-39.922 105.245-0.237 145.231l40.63 40.602c19.333 19.355 45.142 30.041 72.622 30.041 27.449 0 53.244-10.667 72.631-30.035l7.237-7.23 10.71 4.397v10.24c0 56.663 46.122 102.763 102.813 102.763h57.046c56.657 0 102.75-46.1 102.75-102.762v-10.236l10.721-4.409 7.033 7.072c19.638 19.56 45.417 30.2 72.83 30.2 27.448 0 53.243-10.663 72.63-30.024l40.422-40.423c19.4-19.393 30.091-45.214 30.091-72.696 0-27.491-10.697-53.317-30.119-72.72l-7.24-7.228 4.396-10.696h10.326c56.641 0 102.722-46.107 102.722-102.78V483.45c0-56.674-46.08-102.781-102.722-102.781H844.36l-4.402-10.706 7.22-7.21c19.468-19.473 30.154-45.32 30.131-72.83-0.022-27.491-10.739-53.3-30.173-72.676l-40.32-40.292c-19.398-19.38-45.197-30.046-72.651-30.046-27.42 0-53.203 10.644-72.599 29.971l-7.352 7.35-10.632-4.38v-10.342c0-56.676-46.095-102.787-102.752-102.787z m-28.465 513.696c-37.74 0-68.441-30.712-68.441-68.464 0-37.755 30.703-68.472 68.441-68.472 37.728 0 68.422 30.717 68.422 68.472 0 37.752-30.694 68.464-68.422 68.464z" fill="#333333" p-id="2972"></path></svg>