<?xml version="1.0" standalone="no"?><!DOCTYPE svg PUBLIC "-//W3C//DTD SVG 1.1//EN" "http://www.w3.org/Graphics/SVG/1.1/DTD/svg11.dtd"><svg t="1530509333151" class="icon" style="" viewBox="0 0 1024 1024" version="1.1" xmlns="http://www.w3.org/2000/svg" p-id="1903" xmlns:xlink="http://www.w3.org/1999/xlink" width="16" height="16"><defs><style type="text/css"></style></defs><path d="M838.700225 736.360907l-104.3363 0c-1.830695-14.017248-4.713348-27.689642-8.922207-40.781822l113.258507 0c45.097104 0 81.672114-36.537148 81.672114-81.59639 0-40.074717-28.975938-73.222675-67.109444-80.112596 10.425444-10.226922 20.072151-21.577434 28.922726-33.94409 46.111201 17.551748 79.021751 61.833277 79.021751 114.056686C961.205327 681.561837 906.354068 736.360907 838.700225 736.360907L838.700225 736.360907zM716.176704 552.802288c-26.52819 0-51.697429-7.633864-74.471109-21.143553 5.584182-12.420891 10.642384-25.186635 14.942317-38.35147 18.132986 11.895935 38.240953 18.695804 59.529815 18.695804 78.932724 0 142.94155-91.299379 142.94155-203.940832S795.109428 104.104009 716.176704 104.104009c-39.494503 0-75.216076 22.847357-101.072977 59.782571-7.580652-12.021801-15.613606-23.590278-24.334221-34.361599 32.855292-40.962947 76.864622-66.221214 125.407198-66.221214 101.490485 0 183.776583 109.577674 183.776583 244.75847C899.953288 443.224614 817.66719 552.802288 716.176704 552.802288L716.176704 552.802288zM379.267465 695.580109c-112.296599 0-255.220752-141.544737-255.220752-316.146357 0-174.60162 114.255207-316.128961 255.220752-316.128961s255.239172 141.528364 255.239172 316.128961C634.506637 554.034349 491.582483 695.580109 379.267465 695.580109L379.267465 695.580109zM379.340119 104.104009c-118.209262 0-214.385718 123.521245-214.385718 275.329742 0 157.103084 130.049938 275.347139 214.385718 275.347139s214.384695-118.244055 214.384695-275.347139C593.724815 227.625254 497.565754 104.104009 379.340119 104.104009L379.340119 104.104009zM182.634062 633.185037c-47.054689 26.1291-79.004355 76.265988-79.004355 133.76761 0 84.34806 68.687382 152.945391 153.132656 152.945391l245.029646 0c84.427878 0 153.133679-68.597331 153.133679-152.945391 0-57.500599-31.950689-107.638509-79.005378-133.76761 9.083889-10.081613 17.698081-20.782326 25.857924-32.041764 56.229652 33.92567 93.982488 95.378278 93.982488 165.80835 0 106.996896-86.838787 193.743586-193.96769 193.743586L256.76134 960.695209c-107.128903 0-193.968713-86.74669-193.968713-193.743586 0-70.430072 37.753859-131.88268 93.983511-165.80835C164.937005 612.402711 173.550173 623.103424 182.634062 633.185037L182.634062 633.185037z" p-id="1904" fill="#333333"></path></svg>