<?xml version="1.0" standalone="no"?><!DOCTYPE svg PUBLIC "-//W3C//DTD SVG 1.1//EN" "http://www.w3.org/Graphics/SVG/1.1/DTD/svg11.dtd"><svg t="1530186564549" class="icon" style="" viewBox="0 0 1024 1024" version="1.1" xmlns="http://www.w3.org/2000/svg" p-id="3112" xmlns:xlink="http://www.w3.org/1999/xlink" width="32" height="32"><defs><style type="text/css"></style></defs><path d="M607.8464 439.0912l-168.7552 168.7552c-6.144 6.144-16.384 6.144-22.9376 0l0 0c-6.144-6.144-6.144-16.384 0-22.9376l168.7552-168.7552c6.144-6.144 16.384-6.144 22.9376 0l0 0C613.9904 422.2976 613.9904 432.5376 607.8464 439.0912z" p-id="3113" fill="#333333"></path><path d="M271.5648 652.4928l120.4224-120.4224c12.6976-12.6976 33.5872-12.6976 46.2848 0l0 0c6.5536 6.144 16.7936 6.144 22.9376 0s6.5536-16.7936 0-22.9376l0 0c0 0 0 0 0 0 0 0 0 0 0 0 0 0 0 0 0 0-25.3952-25.3952-66.7648-25.3952-92.5696 0.4096l-120.4224 120.4224c-25.3952 25.3952-25.3952 67.1744 0 92.5696l53.6576 53.6576c25.3952 25.3952 67.1744 25.3952 92.5696 0l120.4224-120.4224c25.3952-25.3952 25.3952-67.1744 0-92.5696 0 0 0 0 0 0 0 0 0 0 0 0 0 0 0 0 0 0l0 0c-6.5536-6.144-16.7936-6.144-22.9376 0-6.5536 6.5536-6.5536 16.7936 0 22.9376l0 0c12.6976 12.6976 12.6976 33.5872 0 46.2848l-120.4224 120.4224c-12.6976 12.6976-33.5872 12.6976-46.2848 0l-53.6576-53.6576C258.4576 686.08 258.4576 665.6 271.5648 652.4928z" p-id="3114" fill="#333333"></path><path d="M752.4352 371.5072l-120.4224 120.4224c-12.6976 12.6976-33.5872 12.6976-46.2848 0l0 0c-6.5536-6.144-16.7936-6.144-22.9376 0s-6.5536 16.7936 0 22.9376l0 0c0 0 0 0 0 0 0 0 0 0 0 0 0 0 0 0 0 0 25.3952 25.3952 66.7648 25.3952 92.5696-0.4096l120.4224-120.4224c25.3952-25.3952 25.3952-67.1744 0-92.5696l-53.6576-53.6576c-25.3952-25.3952-67.1744-25.3952-92.5696 0L508.7232 368.64c-25.3952 25.3952-25.3952 67.1744 0 92.5696 0 0 0 0 0 0 0 0 0 0 0 0 0 0 0 0 0 0l0 0c6.5536 6.144 16.7936 6.144 22.9376 0 6.5536-6.5536 6.5536-16.7936 0-22.9376l0 0c-12.6976-12.6976-12.6976-33.5872 0-46.2848l120.4224-120.4224c12.6976-12.6976 33.5872-12.6976 46.2848 0l53.6576 53.6576C765.5424 337.92 765.5424 358.4 752.4352 371.5072z" p-id="3115" fill="#333333"></path></svg>