<?xml version="1.0" standalone="no"?><!DOCTYPE svg PUBLIC "-//W3C//DTD SVG 1.1//EN" "http://www.w3.org/Graphics/SVG/1.1/DTD/svg11.dtd"><svg t="1530189422087" class="icon" style="" viewBox="0 0 1024 1024" version="1.1" xmlns="http://www.w3.org/2000/svg" p-id="2616" xmlns:xlink="http://www.w3.org/1999/xlink" width="32" height="32"><defs><style type="text/css"></style></defs><path d="M639.466 652.356c9.188 0 16.67-7.482 16.67-16.643 0-9.217-7.482-16.699-16.67-16.699h-93.083l85.33-85.383c6.479-6.506 6.479-17.05 0-23.556-6.505-6.505-17.077-6.505-23.582 0l-85.357 85.357-85.385-85.357c-6.505-6.56-17.077-6.56-23.582 0-6.478 6.505-6.478 17.023 0 23.556l85.357 85.383h-93.11c-9.188 0-16.67 7.483-16.67 16.699 0 9.161 7.481 16.643 16.67 16.643h100.023v33.341H406.055c-9.189 0-16.671 7.481-16.671 16.696 0 9.19 7.481 16.671 16.67 16.671h100.023v68.388c0 9.163 7.481 16.645 16.697 16.645 9.188 0 16.643-7.482 16.643-16.645v-68.388h100.05c9.188 0 16.67-7.481 16.67-16.67 0-9.217-7.482-16.697-16.67-16.697h-100.05v-33.341h100.049z" fill="#333333" p-id="2617"></path><path d="M680.423 327.542c37.732-25.399 87.905-63.591 87.905-114.416 0-50.932-18.811-76.412-37.73-89.07-18.217-11.115-38.573-17.891-61.072-17.891-16.21 0-33.557 3.523-51.99 11.52-24.856-37.759-62.073-50.553-105.442-50.797v-0.026h-0.189v0.026c-43.37 0.244-80.587 13.038-105.444 50.797-18.433-7.996-35.78-11.52-51.99-11.52-22.499 0-42.855 6.776-61.071 17.89-18.92 12.659-37.732 38.139-37.732 89.071 0 50.825 50.174 89.017 87.906 114.416-75.3 50.905-238.697 178.142-226.146 419.767-12.55 190.719 157.054 209.828 157.054 209.828H749.519s169.603-19.109 157.054-209.828c12.547-241.625-150.849-368.862-226.15-419.767z m65.218 573.405H278.466c-24.504-3.957-113.06-26.889-104.956-149.952 0.136-2.195 0.136-4.39 0.028-6.613-7.78-150.032 60.013-274.64 201.507-370.298 15.478-10.463 24.748-27.92 24.721-46.595a56.274 56.274 0 0 0-24.802-46.569c-41.878-28.162-63.103-50.986-63.103-67.793 0-21.494 4.662-36.919 10.788-41.093 10.68-6.505 21.088-9.677 31.823-9.677 9.135 0 19.11 2.33 29.654 6.885a55.897 55.897 0 0 0 22.31 4.635c18.431 0 36.294-9.08 46.974-25.29 8.62-13.092 21.685-25.263 58.36-25.534v0.027c37.08 0.217 50.2 12.387 58.819 25.507 10.68 16.21 28.543 25.29 46.975 25.29a55.893 55.893 0 0 0 22.309-4.635c10.544-4.554 20.52-6.885 29.654-6.885 10.734 0 21.143 3.171 29.817 8.402 8.132 5.448 12.795 20.871 12.795 42.367 0 16.806-21.225 39.63-63.103 67.793a56.274 56.274 0 0 0-24.802 46.569 56.148 56.148 0 0 0 24.72 46.595C790.447 469.742 858.239 594.35 850.46 744.382a59.885 59.885 0 0 0 0.027 6.613c8.159 123.632-81.292 146.211-104.847 149.952z" fill="#333333" p-id="2618"></path></svg>