<?xml version="1.0" standalone="no"?><!DOCTYPE svg PUBLIC "-//W3C//DTD SVG 1.1//EN" "http://www.w3.org/Graphics/SVG/1.1/DTD/svg11.dtd"><svg t="1530186482004" class="icon" style="" viewBox="0 0 1024 1024" version="1.1" xmlns="http://www.w3.org/2000/svg" p-id="2491" xmlns:xlink="http://www.w3.org/1999/xlink" width="32" height="32"><defs><style type="text/css"></style></defs><path d="M625.3 492.4h-41.8l-46.9 86.5c-12.5 23.4-20.2 39-23 46.7h-0.8c-8.3-18.8-31.6-63.2-69.9-133.2h-44.1l82.1 141h-67.3v31.2h78.9v42.9h-78.9v31.6h78.9v62.5h39.2v-62.5h76.1v-31.6h-76.1v-42.9h76.1v-31.2h-65.3l82.8-141z" fill="#d81e06" p-id="2492"></path><path d="M313.2 939.9c-28.1 0-98.5-6.2-151.9-60.9-43.8-45.8-64.3-112.8-61.6-201.1 6.8-180.6 166.3-301.7 234-344.8l10.9-6.8-8.2-9.6c-17.1-19.2-45.8-56.8-52.7-100.6-4.1-26.7 2.1-50.6 17.1-69.1 18.5-23.9 40.4-28.7 55.4-28.7 16.4 0 34.2 6.2 52 17.1l8.2 4.8 6.2-8.2c15.7-21.2 44.5-47.2 88.3-47.9h1.4c44.5 0 73.2 26 89.6 47.9l6.2 8.2 8.2-5.5c17.8-11.6 35.6-17.1 52-17.1 15.1 0 36.9 4.8 55.4 28.7 15.1 19.2 20.5 43.1 16.4 69.1-4.8 32.2-23.9 69.1-52.7 100.6l-8.2 9.6 10.9 6.8c67.7 43.8 227.1 164.9 234 344.8 3.4 87.6-17.8 156-61.6 201.1-52.7 54.7-123.8 60.9-151.9 60.9H313.2v0.7z m73.2-591.1c-24.6 13.7-238.1 136.8-245.6 329.8-2.7 76.6 14.4 134.1 49.9 171.7 41.7 43.1 99.2 47.9 121.8 47.9H710c22.6 0 80-4.8 121.8-47.9 35.6-36.9 52.7-94.4 49.9-171-6.8-194.3-221-316.8-244.9-329.8l-4.1-2.7-4.8 1.4c-2.1 0.7-4.1 1.4-6.2 1.4H402.8c-2.1 0-4.1-0.7-6.8-1.4l-4.8-1.4c-0.7 0-4.8 2-4.8 2z m-30.8-190.9c-5.5 0-13.7 1.4-23.3 13-8.2 10.3-10.9 22.6-8.2 38.3 5.5 39.7 41.1 81.4 62.3 98.5l4.1 3.4 5.5-1.4c2.7-0.7 4.1-1.4 5.5-1.4h221c0.7 0 2.1 0.7 3.4 0.7l6.8 2.1 4.1-3.4c21.2-17.1 56.8-58.8 62.3-98.5 2.1-15.7-0.7-28.1-8.2-38.3-8.9-11.6-17.1-13-23.3-13-19.8 0-43.8 20.5-51.3 28.7-4.1 4.1-9.6 6.8-15.1 6.8-1.4 0-2.7 0-4.1-0.7-6.8-1.4-13-6.2-15.1-13-2.1-6.2-23.3-54.7-69.8-54.7h-1.4c-48.6 0.7-68.4 52.7-69.1 54.7-2.7 6.8-8.2 11.6-15.1 13-1.4 0-2.7 0.7-4.1 0.7-5.5 0-10.9-2.1-15.1-6.8-7.3-8.1-31.9-28.7-51.8-28.7z" fill="#d81e06" p-id="2493"></path></svg>